<?xml version="1.0" encoding="UTF-8"?>
<!DOCTYPE svg PUBLIC "-//W3C//DTD SVG 1.1//EN" "http://www.w3.org/Graphics/SVG/1.1/DTD/svg11.dtd">
<svg xmlns="http://www.w3.org/2000/svg" version="1.1" width="2000px" height="2000px" style="shape-rendering:geometricPrecision; text-rendering:geometricPrecision; image-rendering:optimizeQuality; fill-rule:evenodd; clip-rule:evenodd" xmlns:xlink="http://www.w3.org/1999/xlink">
<g><path style="opacity:0.999" fill="#ac0002" d="M 1043.5,202.5 C 1179.63,199.034 1308.29,228.034 1429.5,289.5C 1371.75,389.997 1313.75,490.33 1255.5,590.5C 1165.85,550.225 1072.85,540.058 976.5,560C 944.403,566.921 913.569,577.421 884,591.5C 825.447,490.896 767.281,390.062 709.5,289C 798.913,242.758 893.913,215.091 994.5,206C 1010.99,204.783 1027.32,203.617 1043.5,202.5 Z"/></g>
<g><path style="opacity:0.999" fill="#ac0002" d="M 638.5,328.5 C 697.445,428.878 755.778,529.711 813.5,631C 775.4,659.767 741.9,693.267 713,731.5C 665.671,797.2 638.171,870.533 630.5,951.5C 511.833,951.5 393.167,951.5 274.5,951.5C 289.207,743.294 370.873,566.794 519.5,422C 556.483,387.156 596.15,355.99 638.5,328.5 Z"/></g>
<g><path style="opacity:0.999" fill="#ac0002" d="M 1061.5,835.5 C 1131.9,833.934 1183.73,863.934 1217,925.5C 1243.54,988.405 1235.54,1046.41 1193,1099.5C 1141.79,1151.67 1081.63,1165.51 1012.5,1141C 963.681,1119.18 932.515,1082.34 919,1030.5C 906.592,964.042 926.425,909.542 978.5,867C 1003.33,848.891 1031,838.391 1061.5,835.5 Z"/></g>
<g><path style="opacity:0.998" fill="#ac0002" d="M 1379.5,915.5 C 1420.74,912.525 1449.57,929.858 1466,967.5C 1477.04,1007.06 1465.87,1038.56 1432.5,1062C 1400.89,1078.94 1370.56,1076.94 1341.5,1056C 1312.01,1028.88 1304.85,996.718 1320,959.5C 1332.95,935.449 1352.79,920.782 1379.5,915.5 Z"/></g>
<g><path style="opacity:0.998" fill="#ac0002" d="M 1622.5,916.5 C 1666.53,916.383 1694.7,937.383 1707,979.5C 1713,1019.67 1698.16,1049.17 1662.5,1068C 1621.25,1083.03 1587.75,1072.86 1562,1037.5C 1542.47,999.2 1547.97,965.033 1578.5,935C 1591.5,924.659 1606.17,918.492 1622.5,916.5 Z"/></g>
<g><path style="opacity:0.999" fill="#ac0002" d="M 273.5,1032.5 C 392.5,1032.5 511.5,1032.5 630.5,1032.5C 645.109,1167.27 706.776,1274.44 815.5,1354C 755.46,1457.92 695.293,1561.75 635,1665.5C 473.766,1558.21 364.1,1411.87 306,1226.5C 287.277,1163.16 276.443,1098.49 273.5,1032.5 Z"/></g>
<g><path style="opacity:0.999" fill="#ac0002" d="M 884.5,1393.5 C 997.891,1443.79 1112.89,1447.62 1229.5,1405C 1237.74,1401.63 1245.91,1398.13 1254,1394.5C 1314.21,1497.75 1374.05,1601.25 1433.5,1705C 1272.67,1786.45 1103.33,1811.79 925.5,1781C 848.875,1766.9 775.875,1742.24 706.5,1707C 705.483,1705.95 705.316,1704.78 706,1703.5C 766.155,1600.52 825.655,1497.19 884.5,1393.5 Z"/></g>
</svg>
