<?xml version="1.0" encoding="UTF-8" standalone="no" ?>
<!DOCTYPE svg PUBLIC "-//W3C//DTD SVG 1.1//EN" "http://www.w3.org/Graphics/SVG/1.1/DTD/svg11.dtd">
<svg xmlns="http://www.w3.org/2000/svg" xmlns:xlink="http://www.w3.org/1999/xlink" version="1.1" width="590" height="580" viewBox="0 0 590 580" xml:space="preserve">
<desc>Created with Fabric.js 4.6.0</desc>
<defs>
</defs>
<g transform="matrix(0 0 0 0 292.89 9)" id="DBpKW5bp5wcz7_O2pteqB"  >
<path style="stroke: rgb(119,21,4); stroke-width: 0; stroke-dasharray: none; stroke-linecap: butt; stroke-dashoffset: 0; stroke-linejoin: miter; stroke-miterlimit: 4; fill: rgb(119,8,14); fill-rule: nonzero; opacity: 1;" vector-effect="non-scaling-stroke"  transform=" translate(0, 0)" d="M 0 -0.00005 C 0.00003 -0.00005 0.00005 -0.00003 0.00005 0 C 0.00005 0.00003 0.00003 0.00005 0 0.00005 C -0.00003 0.00005 -0.00005 0.00003 -0.00005 0 C -0.00005 -0.00003 -0.00003 -0.00005 0 -0.00005 z" stroke-linecap="round" />
</g>
<g transform="matrix(1.2 0 0 1.2 313 257)" id="uc5WeWIBOb47WZqrU9e2z"  >
<path style="stroke: rgb(204,248,117); stroke-width: 0; stroke-dasharray: none; stroke-linecap: butt; stroke-dashoffset: 0; stroke-linejoin: miter; stroke-miterlimit: 4; fill: rgb(172,0,3); fill-rule: nonzero; opacity: 1;" vector-effect="non-scaling-stroke"  transform=" translate(0, 0)" d="M 0 -40 C 22.08 -40 40 -22.08 40 0 C 40 22.08 22.08 40 0 40 C -22.08 40 -40 22.08 -40 0 C -40 -22.08 -22.08 -40 0 -40 z" stroke-linecap="round" />
</g>
<g transform="matrix(1.18 0 0 1.17 291.5 547)" style="" id="ANZwOVQjZCjSiH3cz7UGQ"  >
		<text xml:space="preserve" font-family="Lato" font-size="50" font-style="normal" font-weight="500" line-height="0.9" style="stroke: none; stroke-width: 1; stroke-dasharray: none; stroke-linecap: butt; stroke-dashoffset: 0; stroke-linejoin: miter; stroke-miterlimit: 4; fill: rgb(0,0,0); fill-rule: nonzero; opacity: 1; white-space: pre;" ><tspan x="-245.72" y="15.71" >Marmara Credit Loops</tspan></text>
</g>
<g transform="matrix(1.27 0 0 1.27 415.5 258.5)" id="-G-aot9h5asfVNGyOSPpp"  >
<path style="stroke: rgb(67,233,151); stroke-width: 0; stroke-dasharray: none; stroke-linecap: butt; stroke-dashoffset: 0; stroke-linejoin: miter; stroke-miterlimit: 4; fill: rgb(172,0,3); fill-rule: nonzero; opacity: 1;" vector-effect="non-scaling-stroke"  transform=" translate(0, 0)" d="M 0 -20 C 11.04 -20 20 -11.04 20 0 C 20 11.04 11.04 20 0 20 C -11.04 20 -20 11.04 -20 0 C -20 -11.04 -11.04 -20 0 -20 z" stroke-linecap="round" />
</g>
<g transform="matrix(1.27 0 0 1.27 490.5 258.5)" id="chuIClG2XGPwALJILDQ4E"  >
<path style="stroke: rgb(67,233,151); stroke-width: 0; stroke-dasharray: none; stroke-linecap: butt; stroke-dashoffset: 0; stroke-linejoin: miter; stroke-miterlimit: 4; fill: rgb(172,0,3); fill-rule: nonzero; opacity: 1;" vector-effect="non-scaling-stroke"  transform=" translate(0, 0)" d="M 0 -20 C 11.04 -20 20 -11.04 20 0 C 20 11.04 11.04 20 0 20 C -11.04 20 -20 11.04 -20 0 C -20 -11.04 -11.04 -20 0 -20 z" stroke-linecap="round" />
</g>
<g transform="matrix(0.77 0 0 0.77 250.5 252.5)" id="IwOf47Rbp7ifDBsVsbLOO"  >
<path style="stroke: none; stroke-width: 1; stroke-dasharray: none; stroke-linecap: butt; stroke-dashoffset: 0; stroke-linejoin: miter; stroke-miterlimit: 4; fill: rgb(172,0,3); fill-rule: nonzero; opacity: 1;" vector-effect="non-scaling-stroke"  transform=" translate(-901.48, -984.1)" d="M 913.394 822.008 L 843.808 701.132 C 939.148 654.469 1035.251 654.633 1132.115 701.622 L 1062.692 821.844 C 1016.649 799.509 957.684 800.661 913.394 822.008 M 810.611 966.218 L 671.146 964.529 C 679.555 858.715 728.65 776.097 818.426 716.677 L 886.52 837.657 C 843.846 865.902 814.802 917.231 810.611 966.218 M 810.317 999.086 L 670.842 998.426 C 677.47 1104.367 725.166 1187.8 813.93 1248.723 L 884.05 1128.907 C 841.858 1099.947 813.682 1048.136 810.317 999.086 M 1062.745 1146.664 L 1131.549 1267.987 C 1035.909 1314.033 939.809 1313.248 843.251 1265.634 L 913.449 1145.863 C 959.347 1168.495 1018.318 1167.724 1062.745 1146.664" stroke-linecap="round" />
</g>
</svg>