<?xml version="1.0" encoding="UTF-8" standalone="no" ?>
<!DOCTYPE svg PUBLIC "-//W3C//DTD SVG 1.1//EN" "http://www.w3.org/Graphics/SVG/1.1/DTD/svg11.dtd">
<svg xmlns="http://www.w3.org/2000/svg" xmlns:xlink="http://www.w3.org/1999/xlink" version="1.1" width="590" height="580" viewBox="0 0 590 580" xml:space="preserve">
<desc>Created with Fabric.js 4.6.0</desc>
<defs>
</defs>
<g transform="matrix(0 0 0 0 292.89 9)" id="DBpKW5bp5wcz7_O2pteqB"  >
<path style="stroke: rgb(119,21,4); stroke-width: 0; stroke-dasharray: none; stroke-linecap: butt; stroke-dashoffset: 0; stroke-linejoin: miter; stroke-miterlimit: 4; fill: rgb(119,8,14); fill-rule: nonzero; opacity: 1;" vector-effect="non-scaling-stroke"  transform=" translate(0, 0)" d="M 0 -0.00005 C 0.00003 -0.00005 0.00005 -0.00003 0.00005 0 C 0.00005 0.00003 0.00003 0.00005 0 0.00005 C -0.00003 0.00005 -0.00005 0.00003 -0.00005 0 C -0.00005 -0.00003 -0.00003 -0.00005 0 -0.00005 z" stroke-linecap="round" />
</g>
<g transform="matrix(1.18 0 0 1.17 291.5 547)" style="" id="ANZwOVQjZCjSiH3cz7UGQ"  >
		<text xml:space="preserve" font-family="Lato" font-size="50" font-style="normal" font-weight="500" line-height="0.9" style="stroke: none; stroke-width: 1; stroke-dasharray: none; stroke-linecap: butt; stroke-dashoffset: 0; stroke-linejoin: miter; stroke-miterlimit: 4; fill: rgb(255,255,255); fill-rule: nonzero; opacity: 1; white-space: pre;" ><tspan x="-245.72" y="15.71" >Marmara Credit Loops</tspan></text>
</g>
<g transform="matrix(1.28 0 0 1.28 317.29 258.04)" id="aXwon3u29mb9IlxZcTPbq"  >
<path style="stroke: rgb(204,248,117); stroke-width: 0; stroke-dasharray: none; stroke-linecap: butt; stroke-dashoffset: 0; stroke-linejoin: miter; stroke-miterlimit: 4; fill: rgb(172,0,3); fill-rule: nonzero; opacity: 1;" vector-effect="non-scaling-stroke"  transform=" translate(-3.8, 0)" d="M 3.799 -40 C 25.879 -40 43.799 -22.08 43.799 0 C 43.799 22.08 25.879 40 3.799 40 C -18.281 40 -36.201 22.08 -36.201 0 C -36.201 -22.08 -18.281 -40 3.799 -40 Z" stroke-linecap="round" />
</g>
<g transform="matrix(1.28 0 0 1.28 421.69 258.04)" id="QwFroH3yY3RCbUXM2NYJg"  >
<path style="stroke: rgb(67,233,151); stroke-width: 0; stroke-dasharray: none; stroke-linecap: butt; stroke-dashoffset: 0; stroke-linejoin: miter; stroke-miterlimit: 4; fill: rgb(172,0,3); fill-rule: nonzero; opacity: 1;" vector-effect="non-scaling-stroke"  transform=" translate(-85.34, 0)" d="M 85.337 -20 C 96.377 -20 105.337 -11.04 105.337 0 C 105.337 11.04 96.377 20 85.337 20 C 74.297 20 65.337 11.04 65.337 0 C 65.337 -11.04 74.297 -20 85.337 -20 Z" stroke-linecap="round" />
</g>
<g transform="matrix(1.28 0 0 1.28 250.49 258.64)" id="leRqvuoQl8wKkp542yTGK"  >
<path style="stroke: none; stroke-width: 1; stroke-dasharray: none; stroke-linecap: butt; stroke-dashoffset: 0; stroke-linejoin: miter; stroke-miterlimit: 4; fill: rgb(172,0,3); fill-rule: nonzero; opacity: 1;" vector-effect="non-scaling-stroke"  transform=" translate(48.38, -0.47)" d="M -39.952 -101.4 L -83.368 -176.512 C -26.491 -205.234 38.396 -205.283 95.386 -177.597 L 50.461 -99.689 C 23.59 -111.8 -10.516 -111.949 -38.606 -98.973 M -105.535 -11.647 L -191.975 -11.647 C -188.717 -67.108 -160.578 -126.528 -102.501 -165.408 L -57.719 -87.864 C -85.318 -64.407 -98.606 -42.572 -102.263 -11.647 M -105.719 10.429 L -192.212 10.429 C -189.119 73.049 -157.645 129.598 -102.924 167.27 L -58.409 88.751 C -86.06 67.846 -98.347 42.836 -102.604 10.429 M 51.867 101.923 L 95.455 177.493 C 44.257 203.41 -20.433 209.113 -84.196 177.688 L -39.294 99.873 C -9.361 113.164 20.486 112.808 50.721 99.973" stroke-linecap="round" />
</g>
<g transform="matrix(1.28 0 0 1.28 498.51 258.04)" id="Lc17PMbYdw88s1Hxqrf6s"  >
<path style="stroke: rgb(67,233,151); stroke-width: 0; stroke-dasharray: none; stroke-linecap: butt; stroke-dashoffset: 0; stroke-linejoin: miter; stroke-miterlimit: 4; fill: rgb(172,0,3); fill-rule: nonzero; opacity: 1;" vector-effect="non-scaling-stroke"  transform=" translate(-145.34, 0)" d="M 145.337 -20 C 156.377 -20 165.337 -11.04 165.337 0 C 165.337 11.04 156.377 20 145.337 20 C 134.297 20 125.337 11.04 125.337 0 C 125.337 -11.04 134.297 -20 145.337 -20 Z" stroke-linecap="round" />
</g>
</svg>