<?xml version="1.0" encoding="UTF-8"?>
<!DOCTYPE svg PUBLIC "-//W3C//DTD SVG 1.1//EN" "http://www.w3.org/Graphics/SVG/1.1/DTD/svg11.dtd">
<svg xmlns="http://www.w3.org/2000/svg" version="1.1" width="4000px" height="4000px" style="shape-rendering:geometricPrecision; text-rendering:geometricPrecision; image-rendering:optimizeQuality; fill-rule:evenodd; clip-rule:evenodd" xmlns:xlink="http://www.w3.org/1999/xlink">
<g><path style="opacity:0.999" fill="#ab0002" d="M 972.5,1047.5 C 1122.14,1046.91 1263.47,1080.58 1396.5,1148.5C 1330.42,1263 1264.09,1377.33 1197.5,1491.5C 1196.28,1492.61 1194.94,1492.78 1193.5,1492C 1081.86,1442.29 966.857,1432.95 848.5,1464C 821.156,1471.67 794.656,1481.5 769,1493.5C 701.455,1378.25 634.288,1262.75 567.5,1147C 694.878,1082.57 829.878,1049.41 972.5,1047.5 Z"/></g>
<g><path style="opacity:1" fill="#ab0002" d="M 487.5,1192.5 C 554.726,1307.94 621.726,1423.61 688.5,1539.5C 565.603,1630.92 495.603,1753.25 478.5,1906.5C 342.5,1906.5 206.5,1906.5 70.5,1906.5C 87.7945,1664.78 183.461,1460.62 357.5,1294C 398.185,1256.52 441.518,1222.69 487.5,1192.5 Z"/></g>
<g><path style="opacity:1" fill="#000000" d="M 1873.5,1548.5 C 1888.54,1548.15 1903.54,1548.65 1918.5,1550C 1921.63,1550.98 1924.13,1552.81 1926,1555.5C 1967.67,1629.5 2009.33,1703.5 2051,1777.5C 2056.16,1786.81 2060.49,1796.48 2064,1806.5C 2068.79,1794.93 2074.12,1783.59 2080,1772.5C 2119.75,1700.01 2159.75,1627.67 2200,1555.5C 2201.87,1552.81 2204.37,1550.98 2207.5,1550C 2222.13,1548.65 2236.8,1548.15 2251.5,1548.5C 2251.5,1669.5 2251.5,1790.5 2251.5,1911.5C 2237.17,1911.5 2222.83,1911.5 2208.5,1911.5C 2208.39,1815.49 2208.56,1719.49 2209,1623.5C 2167.41,1698.34 2126.08,1773.34 2085,1848.5C 2080.28,1856.8 2073.11,1860.47 2063.5,1859.5C 2053.58,1860.29 2046.42,1856.29 2042,1847.5C 2000.25,1772.34 1958.25,1697.34 1916,1622.5C 1916.48,1718.81 1916.65,1815.14 1916.5,1911.5C 1902.17,1911.5 1887.83,1911.5 1873.5,1911.5C 1873.5,1790.5 1873.5,1669.5 1873.5,1548.5 Z"/></g>
<g><path style="opacity:1" fill="#000000" d="M 2405.5,1651.5 C 2431.63,1648.2 2455.63,1653.7 2477.5,1668C 2497.2,1685.24 2508.03,1707.07 2510,1733.5C 2510.5,1792.83 2510.67,1852.17 2510.5,1911.5C 2500.42,1911.92 2490.42,1911.42 2480.5,1910C 2477.57,1907.88 2475.74,1905.05 2475,1901.5C 2473.46,1893.47 2471.79,1885.47 2470,1877.5C 2438.62,1909.63 2400.78,1921.46 2356.5,1913C 2332.01,1906.56 2316.51,1891.06 2310,1866.5C 2303.74,1835.2 2314.24,1811.36 2341.5,1795C 2367.26,1781.73 2394.59,1773.73 2423.5,1771C 2437.78,1769.23 2452.11,1768.39 2466.5,1768.5C 2466.67,1756.5 2466.5,1744.5 2466,1732.5C 2463.9,1708.76 2451.4,1693.93 2428.5,1688C 2412.59,1685.86 2397.25,1687.86 2382.5,1694C 2371,1699.91 2360,1706.58 2349.5,1714C 2340.5,1716.25 2333.67,1713.41 2329,1705.5C 2326.88,1700.76 2324.38,1696.26 2321.5,1692C 2344.98,1669.09 2372.98,1655.59 2405.5,1651.5 Z M 2448.5,1797.5 C 2454.5,1797.5 2460.5,1797.5 2466.5,1797.5C 2466.67,1815.17 2466.5,1832.84 2466,1850.5C 2442.06,1877.48 2412.23,1887.98 2376.5,1882C 2355.3,1873.43 2347.46,1857.93 2353,1835.5C 2356.34,1827.82 2361.51,1821.65 2368.5,1817C 2383.45,1808.76 2399.45,1803.59 2416.5,1801.5C 2427.3,1800.02 2437.96,1798.69 2448.5,1797.5 Z"/></g>
<g><path style="opacity:1" fill="#000000" d="M 2682.5,1651.5 C 2699.02,1649.45 2714.69,1652.11 2729.5,1659.5C 2729.83,1660.33 2730.17,1661.17 2730.5,1662C 2728.67,1672.5 2726.83,1683 2725,1693.5C 2723.34,1697.83 2720.18,1699.83 2715.5,1699.5C 2673.3,1686.61 2642.8,1699.94 2624,1739.5C 2622.94,1742.62 2621.61,1745.62 2620,1748.5C 2619.5,1802.83 2619.33,1857.17 2619.5,1911.5C 2604.5,1911.5 2589.5,1911.5 2574.5,1911.5C 2574.5,1826.17 2574.5,1740.83 2574.5,1655.5C 2584.51,1655.33 2594.51,1655.5 2604.5,1656C 2611.37,1657.19 2614.87,1661.35 2615,1668.5C 2616,1681.5 2617,1694.5 2618,1707.5C 2627.59,1687.91 2641.43,1672.08 2659.5,1660C 2666.89,1656.08 2674.55,1653.25 2682.5,1651.5 Z"/></g>
<g><path style="opacity:1" fill="#000000" d="M 3266.5,1651.5 C 3292.63,1648.2 3316.63,1653.7 3338.5,1668C 3358.2,1685.24 3369.03,1707.07 3371,1733.5C 3371.5,1792.83 3371.67,1852.17 3371.5,1911.5C 3361.42,1911.92 3351.42,1911.42 3341.5,1910C 3338.57,1907.88 3336.74,1905.05 3336,1901.5C 3334.46,1893.47 3332.79,1885.47 3331,1877.5C 3299.62,1909.63 3261.78,1921.46 3217.5,1913C 3193.01,1906.56 3177.51,1891.06 3171,1866.5C 3164.74,1835.2 3175.24,1811.36 3202.5,1795C 3228.26,1781.73 3255.59,1773.73 3284.5,1771C 3298.78,1769.23 3313.11,1768.39 3327.5,1768.5C 3327.67,1756.5 3327.5,1744.5 3327,1732.5C 3324.9,1708.76 3312.4,1693.93 3289.5,1688C 3273.59,1685.86 3258.25,1687.86 3243.5,1694C 3232,1699.91 3221,1706.58 3210.5,1714C 3201.5,1716.25 3194.67,1713.41 3190,1705.5C 3187.88,1700.76 3185.38,1696.26 3182.5,1692C 3205.98,1669.09 3233.98,1655.59 3266.5,1651.5 Z M 3309.5,1797.5 C 3315.5,1797.5 3321.5,1797.5 3327.5,1797.5C 3327.67,1815.17 3327.5,1832.84 3327,1850.5C 3303.06,1877.48 3273.23,1887.98 3237.5,1882C 3216.3,1873.43 3208.46,1857.93 3214,1835.5C 3217.34,1827.82 3222.51,1821.65 3229.5,1817C 3244.45,1808.76 3260.45,1803.59 3277.5,1801.5C 3288.3,1800.02 3298.96,1798.69 3309.5,1797.5 Z"/></g>
<g><path style="opacity:1" fill="#000000" d="M 3543.5,1651.5 C 3560.02,1649.45 3575.69,1652.11 3590.5,1659.5C 3590.83,1660.33 3591.17,1661.17 3591.5,1662C 3589.67,1672.5 3587.83,1683 3586,1693.5C 3584.34,1697.83 3581.18,1699.83 3576.5,1699.5C 3534.3,1686.61 3503.8,1699.94 3485,1739.5C 3483.94,1742.62 3482.61,1745.62 3481,1748.5C 3480.5,1802.83 3480.33,1857.17 3480.5,1911.5C 3465.5,1911.5 3450.5,1911.5 3435.5,1911.5C 3435.5,1826.17 3435.5,1740.83 3435.5,1655.5C 3445.51,1655.33 3455.51,1655.5 3465.5,1656C 3472.37,1657.19 3475.87,1661.35 3476,1668.5C 3477,1681.5 3478,1694.5 3479,1707.5C 3488.59,1687.91 3502.43,1672.08 3520.5,1660C 3527.89,1656.08 3535.55,1653.25 3543.5,1651.5 Z"/></g>
<g><path style="opacity:1" fill="#000000" d="M 3721.5,1651.5 C 3747.63,1648.2 3771.63,1653.7 3793.5,1668C 3813.2,1685.24 3824.03,1707.07 3826,1733.5C 3826.5,1792.83 3826.67,1852.17 3826.5,1911.5C 3816.42,1911.92 3806.42,1911.42 3796.5,1910C 3793.57,1907.88 3791.74,1905.05 3791,1901.5C 3789.46,1893.47 3787.79,1885.47 3786,1877.5C 3754.62,1909.63 3716.78,1921.46 3672.5,1913C 3648.01,1906.56 3632.51,1891.06 3626,1866.5C 3619.74,1835.2 3630.24,1811.36 3657.5,1795C 3683.26,1781.73 3710.59,1773.73 3739.5,1771C 3753.78,1769.23 3768.11,1768.39 3782.5,1768.5C 3782.67,1756.5 3782.5,1744.5 3782,1732.5C 3779.9,1708.76 3767.4,1693.93 3744.5,1688C 3728.59,1685.86 3713.25,1687.86 3698.5,1694C 3687,1699.91 3676,1706.58 3665.5,1714C 3656.5,1716.25 3649.67,1713.41 3645,1705.5C 3642.88,1700.76 3640.38,1696.26 3637.5,1692C 3660.98,1669.09 3688.98,1655.59 3721.5,1651.5 Z M 3764.5,1797.5 C 3770.5,1797.5 3776.5,1797.5 3782.5,1797.5C 3782.67,1815.17 3782.5,1832.84 3782,1850.5C 3758.06,1877.48 3728.23,1887.98 3692.5,1882C 3671.3,1873.43 3663.46,1857.93 3669,1835.5C 3672.34,1827.82 3677.51,1821.65 3684.5,1817C 3699.45,1808.76 3715.45,1803.59 3732.5,1801.5C 3743.3,1800.02 3753.96,1798.69 3764.5,1797.5 Z"/></g>
<g><path style="opacity:1" fill="#000000" d="M 2880.5,1652.5 C 2920.54,1648.76 2946.37,1666.1 2958,1704.5C 2977.21,1666.14 3008.37,1648.97 3051.5,1653C 3085.63,1656.8 3108.13,1674.97 3119,1707.5C 3121.31,1716.05 3122.98,1724.72 3124,1733.5C 3124.5,1792.83 3124.67,1852.17 3124.5,1911.5C 3109.5,1911.5 3094.5,1911.5 3079.5,1911.5C 3079.67,1852.5 3079.5,1793.5 3079,1734.5C 3073.52,1700.04 3053.35,1684.87 3018.5,1689C 2997.14,1693.76 2983.3,1706.59 2977,1727.5C 2975.14,1734.71 2974.14,1742.04 2974,1749.5C 2973.5,1803.5 2973.33,1857.5 2973.5,1911.5C 2958.5,1911.5 2943.5,1911.5 2928.5,1911.5C 2928.67,1852.17 2928.5,1792.83 2928,1733.5C 2922.24,1697.68 2901.41,1683.18 2865.5,1690C 2848.25,1696.24 2834.09,1706.74 2823,1721.5C 2822.5,1784.83 2822.33,1848.17 2822.5,1911.5C 2807.5,1911.5 2792.5,1911.5 2777.5,1911.5C 2777.5,1826.17 2777.5,1740.83 2777.5,1655.5C 2786.51,1655.33 2795.51,1655.5 2804.5,1656C 2809.9,1656.12 2813.74,1658.62 2816,1663.5C 2817.66,1672.78 2818.99,1682.11 2820,1691.5C 2831.73,1677.57 2845.56,1666.41 2861.5,1658C 2867.84,1655.71 2874.17,1653.88 2880.5,1652.5 Z"/></g>
<g><path style="opacity:0.999" fill="#ab0002" d="M 975.5,1774.5 C 1041.5,1772.97 1094.34,1798.3 1134,1850.5C 1169.22,1903.61 1176.22,1960.28 1155,2020.5C 1125.14,2089.02 1072.98,2127.19 998.5,2135C 934.722,2137.35 882.888,2113.85 843,2064.5C 805.55,2012.02 796.883,1955.02 817,1893.5C 839.843,1834.66 881.676,1796.83 942.5,1780C 953.543,1777.54 964.543,1775.71 975.5,1774.5 Z"/></g>
<g><path style="opacity:0.998" fill="#ab0002" d="M 1337.5,1865.5 C 1382.18,1862.25 1414.34,1880.58 1434,1920.5C 1448.05,1961.79 1438.89,1996.96 1406.5,2026C 1372.03,2049.82 1336.7,2051.15 1300.5,2030C 1263.19,2001.06 1252.36,1964.22 1268,1919.5C 1282.02,1889.63 1305.19,1871.63 1337.5,1865.5 Z"/></g>
<g><path style="opacity:0.998" fill="#ab0002" d="M 1618.5,1866.5 C 1659.95,1866.62 1689.45,1885.29 1707,1922.5C 1720.95,1963.19 1712.12,1998.03 1680.5,2027C 1649,2049.54 1615.66,2052.54 1580.5,2036C 1542.07,2011.75 1527.57,1977.25 1537,1932.5C 1550.34,1893.27 1577.51,1871.27 1618.5,1866.5 Z"/></g>
<g><path style="opacity:1" fill="#000000" d="M 2568.5,1972.5 C 2579.17,1972.5 2589.83,1972.5 2600.5,1972.5C 2600.5,2061.83 2600.5,2151.17 2600.5,2240.5C 2593.16,2240.67 2585.83,2240.5 2578.5,2240C 2575.9,2238.99 2574.06,2237.15 2573,2234.5C 2572,2227.17 2571,2219.83 2570,2212.5C 2558.67,2225.17 2545.17,2234.67 2529.5,2241C 2477.8,2249.37 2447.96,2227.54 2440,2175.5C 2435.31,2146.98 2438.98,2119.65 2451,2093.5C 2473.41,2058.02 2504.91,2046.19 2545.5,2058C 2553.83,2062 2561.33,2067.16 2568,2073.5C 2568.5,2039.83 2568.67,2006.17 2568.5,1972.5 Z M 2515.5,2078.5 C 2536.77,2075.64 2554.27,2082.31 2568,2098.5C 2568.67,2129.5 2568.67,2160.5 2568,2191.5C 2550.06,2215.03 2526.9,2222.53 2498.5,2214C 2485.62,2206.1 2477.78,2194.6 2475,2179.5C 2471.69,2160.16 2471.69,2140.83 2475,2121.5C 2479.87,2098.8 2493.37,2084.47 2515.5,2078.5 Z"/></g>
<g><path style="opacity:1" fill="#000000" d="M 2667.5,1975.5 C 2688.38,1976.22 2696.88,1986.89 2693,2007.5C 2682.42,2022.47 2669.75,2024.47 2655,2013.5C 2646.6,2000.7 2648.1,1989.2 2659.5,1979C 2662.02,1977.28 2664.69,1976.11 2667.5,1975.5 Z"/></g>
<g><path style="opacity:1" fill="#000000" d="M 1971.5,1977.5 C 2011.38,1972.63 2045.71,1983.8 2074.5,2011C 2070.33,2017.67 2065.66,2024.01 2060.5,2030C 2057.04,2030.82 2053.7,2030.48 2050.5,2029C 2020.86,2007.62 1988.53,2002.62 1953.5,2014C 1920.82,2027.81 1901.32,2052.31 1895,2087.5C 1889.87,2117.68 1894.54,2146.35 1909,2173.5C 1931.4,2205.66 1962.23,2218.82 2001.5,2213C 2020.3,2210.43 2036.63,2202.76 2050.5,2190C 2053.67,2187.37 2057,2187.03 2060.5,2189C 2065.87,2194.03 2070.87,2199.37 2075.5,2205C 2055.39,2227.72 2030.05,2240.39 1999.5,2243C 1957.04,2248.46 1920.7,2236.29 1890.5,2206.5C 1864,2173.55 1853.17,2135.88 1858,2093.5C 1862.43,2049.08 1883.6,2015.58 1921.5,1993C 1937.45,1985.07 1954.11,1979.9 1971.5,1977.5 Z"/></g>
<g><path style="opacity:1" fill="#000000" d="M 2948.5,1978.5 C 2960.17,1978.5 2971.83,1978.5 2983.5,1978.5C 2983.5,2055.83 2983.5,2133.17 2983.5,2210.5C 3021.17,2210.5 3058.83,2210.5 3096.5,2210.5C 3096.5,2220.5 3096.5,2230.5 3096.5,2240.5C 3047.17,2240.5 2997.83,2240.5 2948.5,2240.5C 2948.5,2153.17 2948.5,2065.83 2948.5,1978.5 Z"/></g>
<g><path style="opacity:1" fill="#000000" d="M 2768.5,1995.5 C 2773.83,1995.5 2779.17,1995.5 2784.5,1995.5C 2784.5,2016.83 2784.5,2038.17 2784.5,2059.5C 2802.17,2059.5 2819.83,2059.5 2837.5,2059.5C 2837.5,2067.5 2837.5,2075.5 2837.5,2083.5C 2819.83,2083.5 2802.17,2083.5 2784.5,2083.5C 2784.33,2120.5 2784.5,2157.5 2785,2194.5C 2786.99,2213.13 2797.16,2219.96 2815.5,2215C 2819.33,2213.25 2822.99,2211.25 2826.5,2209C 2827.83,2208.33 2829.17,2208.33 2830.5,2209C 2835.09,2214.42 2839.09,2220.25 2842.5,2226.5C 2826.55,2240.66 2807.88,2246.16 2786.5,2243C 2771.75,2239.91 2761.59,2231.41 2756,2217.5C 2754.18,2210.62 2753.18,2203.62 2753,2196.5C 2752.5,2158.83 2752.33,2121.17 2752.5,2083.5C 2743.39,2083.94 2734.39,2083.44 2725.5,2082C 2724.81,2080.93 2724.31,2079.77 2724,2078.5C 2723.5,2073.51 2723.33,2068.51 2723.5,2063.5C 2733.79,2062.78 2743.95,2061.44 2754,2059.5C 2756.33,2041.5 2758.67,2023.5 2761,2005.5C 2761.37,2000.37 2763.87,1997.04 2768.5,1995.5 Z"/></g>
<g><path style="opacity:0.999" fill="#ab0002" d="M 69.5,1998.5 C 205.833,1998.5 342.167,1998.5 478.5,1998.5C 492.106,2129.21 546.772,2239.04 642.5,2328C 658.046,2341.05 673.713,2353.89 689.5,2366.5C 621.005,2485.49 552.005,2604.16 482.5,2722.5C 326.775,2619.6 212.275,2482.27 139,2310.5C 97.8413,2210.53 74.6746,2106.53 69.5,1998.5 Z"/></g>
<g><path style="opacity:1" fill="#000000" d="M 2199.5,2053.5 C 2211.37,2052.28 2222.7,2054.12 2233.5,2059C 2234.1,2060.06 2234.43,2061.23 2234.5,2062.5C 2233.23,2069.15 2232.06,2075.81 2231,2082.5C 2230.22,2086.28 2227.89,2088.28 2224,2088.5C 2190.13,2078.94 2167.13,2090.6 2155,2123.5C 2154.5,2162.5 2154.33,2201.5 2154.5,2240.5C 2143.83,2240.5 2133.17,2240.5 2122.5,2240.5C 2122.5,2179.17 2122.5,2117.83 2122.5,2056.5C 2130.17,2056.33 2137.84,2056.5 2145.5,2057C 2149.25,2058.99 2151.08,2062.15 2151,2066.5C 2151.67,2075.83 2152.33,2085.17 2153,2094.5C 2162.51,2073.81 2178.01,2060.14 2199.5,2053.5 Z"/></g>
<g><path style="opacity:1" fill="#000000" d="M 2331.5,2053.5 C 2386.42,2052.26 2415.09,2079.09 2417.5,2134C 2417.33,2137.5 2417.17,2141 2417,2144.5C 2416.53,2145.93 2415.7,2147.1 2414.5,2148C 2372.17,2148.33 2329.83,2148.67 2287.5,2149C 2291.37,2207.19 2321.37,2228.19 2377.5,2212C 2383.99,2208.92 2390.32,2205.59 2396.5,2202C 2401.85,2200.35 2406.01,2201.85 2409,2206.5C 2411.36,2209.36 2413.53,2212.36 2415.5,2215.5C 2408.88,2223.33 2400.88,2229.49 2391.5,2234C 2363.86,2245.33 2335.86,2246.33 2307.5,2237C 2279.6,2223.07 2263.1,2200.57 2258,2169.5C 2253.18,2142.07 2257.18,2116.07 2270,2091.5C 2284.78,2069.53 2305.28,2056.86 2331.5,2053.5 Z M 2330.5,2077.5 C 2367.49,2074.49 2386.49,2091.49 2387.5,2128.5C 2354.83,2128.5 2322.17,2128.5 2289.5,2128.5C 2291.9,2102.13 2305.57,2085.13 2330.5,2077.5 Z"/></g>
<g><path style="opacity:1" fill="#000000" d="M 3189.5,2053.5 C 3241.87,2050.73 3274.03,2074.73 3286,2125.5C 3290.74,2153.55 3286.74,2180.21 3274,2205.5C 3270.95,2208.89 3268.28,2212.55 3266,2216.5C 3248.33,2235.34 3226.5,2244.34 3200.5,2243.5C 3152.75,2242.25 3123.91,2218.25 3114,2171.5C 3109.34,2143.77 3113.34,2117.44 3126,2092.5C 3141.13,2069.68 3162.3,2056.68 3189.5,2053.5 Z M 3189.5,2079.5 C 3227.73,2076.56 3248.9,2094.23 3253,2132.5C 3255.17,2151.98 3253.17,2170.98 3247,2189.5C 3234.83,2213.5 3215.33,2223 3188.5,2218C 3171.63,2214.8 3159.8,2205.3 3153,2189.5C 3146.83,2170.98 3144.83,2151.98 3147,2132.5C 3148.51,2115.93 3155.01,2101.76 3166.5,2090C 3173.5,2084.83 3181.17,2081.33 3189.5,2079.5 Z"/></g>
<g><path style="opacity:1" fill="#000000" d="M 3390.5,2053.5 C 3442.87,2050.73 3475.03,2074.73 3487,2125.5C 3491.74,2153.55 3487.74,2180.21 3475,2205.5C 3471.95,2208.89 3469.28,2212.55 3467,2216.5C 3449.33,2235.34 3427.5,2244.34 3401.5,2243.5C 3353.75,2242.25 3324.91,2218.25 3315,2171.5C 3310.34,2143.77 3314.34,2117.44 3327,2092.5C 3342.13,2069.68 3363.3,2056.68 3390.5,2053.5 Z M 3390.5,2079.5 C 3428.73,2076.56 3449.9,2094.23 3454,2132.5C 3456.17,2151.98 3454.17,2170.98 3448,2189.5C 3435.83,2213.5 3416.33,2223 3389.5,2218C 3372.63,2214.8 3360.8,2205.3 3354,2189.5C 3347.83,2170.98 3345.83,2151.98 3348,2132.5C 3349.51,2115.93 3356.01,2101.76 3367.5,2090C 3374.5,2084.83 3382.17,2081.33 3390.5,2079.5 Z"/></g>
<g><path style="opacity:1" fill="#000000" d="M 3608.5,2053.5 C 3648.4,2050.52 3673.9,2068.19 3685,2106.5C 3691.31,2133.6 3690.98,2160.6 3684,2187.5C 3668.26,2230.21 3637.76,2248.38 3592.5,2242C 3579.72,2238.7 3568.89,2232.2 3560,2222.5C 3559.5,2249.5 3559.33,2276.5 3559.5,2303.5C 3548.83,2303.5 3538.17,2303.5 3527.5,2303.5C 3527.5,2221.17 3527.5,2138.83 3527.5,2056.5C 3534.51,2056.33 3541.51,2056.5 3548.5,2057C 3551.82,2057.45 3553.98,2059.29 3555,2062.5C 3556.16,2069.81 3557.16,2077.14 3558,2084.5C 3571.51,2068.44 3588.34,2058.11 3608.5,2053.5 Z M 3601.5,2079.5 C 3623.55,2076.44 3639.38,2084.78 3649,2104.5C 3655.18,2124.04 3657.18,2144.04 3655,2164.5C 3653.68,2181.97 3646.84,2196.81 3634.5,2209C 3617.09,2219.71 3598.76,2221.37 3579.5,2214C 3571.8,2209.97 3565.3,2204.47 3560,2197.5C 3559.33,2167.5 3559.33,2137.5 3560,2107.5C 3570.29,2092.68 3584.12,2083.35 3601.5,2079.5 Z"/></g>
<g><path style="opacity:1" fill="#000000" d="M 3769.5,2053.5 C 3790.08,2051.32 3809.41,2055.15 3827.5,2065C 3831.68,2067.93 3835.68,2071.09 3839.5,2074.5C 3836.54,2079.59 3833.2,2084.43 3829.5,2089C 3828.17,2089.17 3826.83,2089.33 3825.5,2089.5C 3815.17,2084.84 3804.5,2081.01 3793.5,2078C 3777.59,2074.77 3763.76,2078.61 3752,2089.5C 3744.73,2101.34 3746.23,2111.84 3756.5,2121C 3762.9,2124.53 3769.57,2127.53 3776.5,2130C 3795.07,2134.63 3812.4,2141.96 3828.5,2152C 3840.81,2163.95 3845.31,2178.45 3842,2195.5C 3834.81,2223.67 3816.65,2239.51 3787.5,2243C 3765.14,2245.92 3744.14,2241.92 3724.5,2231C 3720.03,2228.12 3716.03,2224.78 3712.5,2221C 3714.53,2217.1 3716.7,2213.27 3719,2209.5C 3722.44,2204.92 3726.94,2203.42 3732.5,2205C 3750.8,2219.13 3771.13,2223.13 3793.5,2217C 3808.71,2210.42 3814.87,2198.92 3812,2182.5C 3806.55,2172.85 3798.39,2166.68 3787.5,2164C 3772.41,2159.79 3757.74,2154.45 3743.5,2148C 3722.38,2137.25 3713.88,2120.09 3718,2096.5C 3723.21,2077.96 3734.71,2065.13 3752.5,2058C 3758.25,2056.31 3763.92,2054.81 3769.5,2053.5 Z"/></g>
<g><path style="opacity:1" fill="#000000" d="M 2655.5,2056.5 C 2666.17,2056.5 2676.83,2056.5 2687.5,2056.5C 2687.5,2117.83 2687.5,2179.17 2687.5,2240.5C 2676.83,2240.5 2666.17,2240.5 2655.5,2240.5C 2655.5,2179.17 2655.5,2117.83 2655.5,2056.5 Z"/></g>
<g><path style="opacity:0.999" fill="#ab0002" d="M 768.5,2412.5 C 910.369,2474.59 1052.37,2475.09 1194.5,2414C 1263.21,2531.92 1331.55,2650.09 1399.5,2768.5C 1287.39,2827.2 1168.06,2860.7 1041.5,2869C 873.034,2879.64 713.701,2846.64 563.5,2770C 563.043,2769.59 562.709,2769.09 562.5,2768.5C 631.695,2650.11 700.362,2531.44 768.5,2412.5 Z"/></g>
</svg>
